<svg xmlns="http://www.w3.org/2000/svg" width="800" height="1000" viewBox="0 0 800 1000">
<defs><linearGradient id="bg" x1="0" y1="0" x2="1" y2="1"><stop stop-color="#F5EEE6"/><stop offset="1" stop-color="#DBC4AC"/></linearGradient><filter id="shadow" x="-20%" y="-20%" width="140%" height="140%"><feDropShadow dx="0" dy="18" stdDeviation="24" flood-color="#3B2F2A" flood-opacity=".15"/></filter><clipPath id="c0"><rect x="62" y="92" width="676" height="420" rx="44"/></clipPath><clipPath id="c1"><rect x="62" y="550" width="320" height="350" rx="42"/></clipPath><clipPath id="c2"><rect x="418" y="550" width="320" height="350" rx="42"/></clipPath></defs>
<rect width="800" height="1000" fill="url(#bg)"/><ellipse cx="690" cy="150" rx="220" ry="180" fill="#fff" opacity=".18"/><path d="M-80 300 C120 170 260 210 380 110 C500 5 650 20 880 180 L880 -60 L-80 -60Z" fill="#fff" opacity=".18"/><circle cx="90" cy="900" r="210" fill="#8E6B52" opacity=".08"/><g filter="url(#shadow)"><rect x="62" y="92" width="676" height="420" rx="44" fill="#fff" opacity=".82"/><image href="https://hcomhdkmtqttzghjxjcb.supabase.co/storage/v1/object/public/uploads/color-variants/2ee05e49-5722-4a56-9c38-c9bb09970ab7" x="62" y="92" width="676" height="420" preserveAspectRatio="xMidYMid slice" clip-path="url(#c0)"/></g><g filter="url(#shadow)"><rect x="62" y="550" width="320" height="350" rx="42" fill="#fff" opacity=".82"/><image href="https://hcomhdkmtqttzghjxjcb.supabase.co/storage/v1/object/public/uploads/color-variants/fed6eb4b-9a2a-43ea-a19b-7b88cb93ca88.webp" x="62" y="550" width="320" height="350" preserveAspectRatio="xMidYMid slice" clip-path="url(#c1)"/></g><g filter="url(#shadow)"><rect x="418" y="550" width="320" height="350" rx="42" fill="#fff" opacity=".82"/><image href="https://hcomhdkmtqttzghjxjcb.supabase.co/storage/v1/object/public/uploads/color-variants/dec2ff28-57bb-4836-b104-01b1ccbb0acd.webp" x="418" y="550" width="320" height="350" preserveAspectRatio="xMidYMid slice" clip-path="url(#c2)"/></g><rect x="0" y="0" width="800" height="1000" fill="#8E6B52" opacity=".025"/>
</svg>